<?xml version="1.0" encoding="UTF-8"?>
<!-- Generator: visioncortex VTracer 0.6.4 -->
<svg version="1.1" xmlns="http://www.w3.org/2000/svg" width="512" height="512">
<path d="M0 0 C168.96 0 337.92 0 512 0 C512 168.96 512 337.92 512 512 C343.04 512 174.08 512 0 512 C0 343.04 0 174.08 0 0 Z " fill="#F1F2F2" transform="translate(0,0)"/>
<path d="M0 0 C168.96 0 337.92 0 512 0 C512 168.96 512 337.92 512 512 C343.04 512 174.08 512 0 512 C0 343.04 0 174.08 0 0 Z M125 91 C124.4220166 91.47791992 123.8440332 91.95583984 123.24853516 92.44824219 C110.94841441 102.61956035 99.83278291 113.39253408 90 126 C89.17628906 127.02996094 88.35257813 128.05992187 87.50390625 129.12109375 C70.1848785 150.94161556 56.86129828 176.98750135 50 204 C49.73445313 205.00289062 49.46890625 206.00578125 49.1953125 207.0390625 C36.25786871 260.7894733 47.62670951 314.38115382 75.38476562 361.34277344 C78.07167538 365.69931831 80.95882827 369.88440955 84 374 C84.41926758 374.57186035 84.83853516 375.1437207 85.27050781 375.73291016 C92.04419964 384.88070209 99.59800078 393.22787137 107.48583984 401.42285156 C108.72746808 402.7161309 109.95383523 404.02404572 111.17578125 405.3359375 C117.16420707 411.6192965 124.07477852 416.80608389 131 422 C131.95326172 422.71978027 131.95326172 422.71978027 132.92578125 423.45410156 C141.53752819 429.90428276 150.46195254 435.61363119 159.8125 440.9375 C160.74247803 441.46907715 161.67245605 442.0006543 162.63061523 442.54833984 C186.35055249 455.77753195 215.73802658 464.90849964 242.9921875 465.2734375 C243.8471582 465.28596558 244.70212891 465.29849365 245.58300781 465.31140137 C264.67991785 465.53693501 282.48817847 465.19455633 301 460 C301.87124512 459.77006348 302.74249023 459.54012695 303.64013672 459.30322266 C344.40444986 448.51064734 385.08455888 426.13096566 412 393 C412.42748535 392.4848584 412.8549707 391.9697168 413.29541016 391.43896484 C420.82880653 382.35554986 427.7997201 373.04624341 434 363 C434.40959961 362.33726074 434.81919922 361.67452148 435.24121094 360.99169922 C445.51586594 344.08784644 453.39493276 325.25142742 458 306 C458.25837646 304.94014893 458.25837646 304.94014893 458.52197266 303.85888672 C465.99233818 273.17633049 467.43865438 238.88324096 460 208 C459.79101074 207.11151367 459.58202148 206.22302734 459.36669922 205.30761719 C453.08321482 179.37353551 441.30318494 154.13773732 425 133 C424.31035156 132.09894531 423.62070312 131.19789063 422.91015625 130.26953125 C418.86707537 125.10559627 414.56914174 120.20636967 410.14453125 115.3671875 C408.25461926 113.28105514 406.43688253 111.15350239 404.625 109 C390.36443373 92.80361026 371.57132393 80.67872893 353 70 C352.05012207 69.44771729 352.05012207 69.44771729 351.08105469 68.88427734 C341.18224326 63.17787277 330.82949755 58.93631981 320.1706543 54.85864258 C318.27295801 54.10797361 316.40812814 53.27527465 314.55078125 52.4296875 C310.01609287 50.60383937 305.44581947 49.52033365 300.6875 48.4375 C299.3581543 48.12522461 299.3581543 48.12522461 298.00195312 47.80664062 C236.67360719 33.53695255 172.95556461 50.6268489 125 91 Z " fill="#262728" transform="translate(0,0)"/>
<path d="M0 0 C1.65707036 1.27721884 3.30353107 2.5683571 4.9375 3.875 C6.15566406 4.80892578 6.15566406 4.80892578 7.3984375 5.76171875 C39.38470176 30.63431856 61.36679857 66.53738869 67.16333008 106.87915039 C71.93116417 146.32907097 62.73338301 189.18839644 37.9375 220.875 C34.61045021 224.87697208 31.06317109 228.65180096 27.41796875 232.36376953 C25.99186397 233.81950644 24.5891498 235.29804573 23.1875 236.77734375 C12.68767592 247.65870214 1.22765424 255.79203918 -12.0625 262.875 C-13.00222656 263.39707031 -13.94195312 263.91914063 -14.91015625 264.45703125 C-43.75785892 279.83435799 -77.38659406 283.30024306 -108.90625 274.84375 C-131.20364276 267.91094721 -150.95953819 255.6752278 -168.0625 239.875 C-168.6292041 239.35744141 -169.1959082 238.83988281 -169.77978516 238.30664062 C-179.35505477 229.46793021 -187.06640367 219.85615011 -194.0625 208.875 C-194.47870605 208.22305664 -194.89491211 207.57111328 -195.32373047 206.89941406 C-214.4843861 176.28900357 -223.127045 135.16984544 -215.03125 99.67578125 C-214.7115625 98.42152344 -214.391875 97.16726562 -214.0625 95.875 C-213.71716674 94.36885172 -213.37350026 92.86232059 -213.03125 91.35546875 C-206.19117553 62.3543868 -191.66569802 38.17331711 -171.0625 16.875 C-170.51867676 16.3070874 -169.97485352 15.7391748 -169.41455078 15.15405273 C-148.85845874 -5.92800095 -121.8130239 -19.6056478 -93.0625 -25.125 C-92.12535156 -25.31578125 -91.18820313 -25.5065625 -90.22265625 -25.703125 C-58.61011782 -29.92334027 -25.59008774 -18.30427034 0 0 Z " fill="#2B2A2B" transform="translate(329.0625,122.125)"/>
<path d="M0 0 C1.87751953 0.02707031 1.87751953 0.02707031 3.79296875 0.0546875 C22.98107861 0.84932299 42.49070139 6.34566181 60 14 C61.07967041 14.46019531 61.07967041 14.46019531 62.18115234 14.9296875 C79.71014685 22.40949826 96.1315251 31.29219367 111.37353516 42.77490234 C113.00488522 44.00367968 114.64822204 45.21501752 116.29296875 46.42578125 C134.3215547 59.84053077 148.73196264 75.95106908 162 94 C162.4434375 94.59200195 162.886875 95.18400391 163.34375 95.79394531 C186.29996014 126.69515631 198.49727297 167.26139367 198.20581055 205.52246094 C198.18752328 207.99685021 198.18530207 210.47086244 198.18554688 212.9453125 C198.13311424 237.89655616 198.13311424 237.89655616 195.1875 249.9375 C195.01009277 250.69272949 194.83268555 251.44795898 194.64990234 252.22607422 C194.11271868 254.48737521 193.55811828 256.74378793 193 259 C192.84128418 259.66177246 192.68256836 260.32354492 192.51904297 261.00537109 C190.11455257 270.99305814 186.85216806 280.49676328 183 290 C182.72784668 290.67208496 182.45569336 291.34416992 182.17529297 292.03662109 C172.73780718 315.05393739 158.88573896 335.53033356 142.02734375 353.78125 C140.21571781 355.76391577 138.51686306 357.80086241 136.8125 359.875 C109.0141578 391.63540476 63.8229074 412.1904958 23.08154297 419.60668945 C21.63648556 419.87973514 20.19785421 420.18821935 18.76611328 420.52416992 C9.23523714 422.59936653 -0.41754542 422.43792754 -10.125 422.4375 C-11.52245956 422.44009827 -11.52245956 422.44009827 -12.94815063 422.44274902 C-28.22577233 422.43028165 -42.20218838 420.99048854 -57 417 C-58.39965525 416.66856865 -59.80061211 416.34256 -61.203125 416.0234375 C-76.93331459 412.23897766 -91.81215641 405.68307217 -106 398 C-107.02625488 397.44554199 -107.02625488 397.44554199 -108.07324219 396.87988281 C-119.53572914 390.60394536 -129.84707628 383.2061006 -140 375 C-140.59296875 374.5241748 -141.1859375 374.04834961 -141.796875 373.55810547 C-154.16017288 363.58027189 -165.23771844 352.54900107 -175 340 C-175.81082031 338.99453125 -176.62164062 337.9890625 -177.45703125 336.953125 C-210.84865301 295.19428884 -226.514282 241.20829915 -220.6875 188.1875 C-219.61357468 178.98432771 -218.39803636 169.96279653 -216 161 C-215.83806152 160.36545898 -215.67612305 159.73091797 -215.50927734 159.07714844 C-212.52418616 147.48407964 -208.22851124 136.75523481 -203 126 C-202.58975586 125.15356934 -202.17951172 124.30713867 -201.75683594 123.43505859 C-192.97368453 105.52788742 -182.19728281 89.90914755 -169 75 C-168.21753906 74.10667969 -167.43507812 73.21335937 -166.62890625 72.29296875 C-158.3878989 62.99505578 -149.74545073 54.70967598 -140 47 C-138.65808594 45.88044922 -138.65808594 45.88044922 -137.2890625 44.73828125 C-97.63922166 12.58257923 -50.34977533 -1.11280642 0 0 Z M-146 78 C-147.39412109 79.29744141 -147.39412109 79.29744141 -148.81640625 80.62109375 C-160.8327936 92.04852001 -170.96586118 105.5041532 -179 120 C-179.46293457 120.83305664 -179.92586914 121.66611328 -180.40283203 122.52441406 C-190.11211106 140.16812453 -197.09492895 157.23300499 -201 177 C-201.17805176 177.83225098 -201.35610352 178.66450195 -201.53955078 179.52197266 C-203.35935288 188.90720761 -203.39656498 198.22649514 -203.375 207.75 C-203.37478851 208.61038879 -203.37457703 209.47077759 -203.37435913 210.35723877 C-203.33961285 224.54656576 -202.37583226 238.16624694 -199 252 C-198.81276367 252.7734375 -198.62552734 253.546875 -198.43261719 254.34375 C-197.18383323 259.31300429 -195.67829505 264.16037356 -194 269 C-193.76474609 269.69158203 -193.52949219 270.38316406 -193.28710938 271.09570312 C-180.92030557 306.82565078 -158.54969468 337.5865453 -129 361 C-128.25878906 361.63164062 -127.51757812 362.26328125 -126.75390625 362.9140625 C-92.22356311 391.99854563 -44.97474397 408.00009015 0 405 C13.55385038 403.64828914 27.10749221 401.47462309 40 397 C40.80856445 396.72671875 41.61712891 396.4534375 42.45019531 396.171875 C54.7960992 391.97808829 66.5473643 387.2337131 78 381 C78.59184082 380.68595215 79.18368164 380.3719043 79.79345703 380.04833984 C126.02462483 355.46216936 158.93895127 312.44173465 174.34375 262.8203125 C188.52002858 214.59851421 180.03021657 165.48786473 156.78662109 121.72265625 C143.55378664 97.47681939 123.6573521 74.87139392 101 59 C100.38737305 58.57009766 99.77474609 58.14019531 99.14355469 57.69726562 C82.4155684 46.11700225 64.31772145 36.43924048 45 30 C44.19175781 29.70996094 43.38351562 29.41992188 42.55078125 29.12109375 C-26.08564961 4.88900818 -95.05615763 29.86343581 -146 78 Z " fill="#343336" transform="translate(266,43)"/>
<path d="M0 0 C1.87751953 0.02707031 1.87751953 0.02707031 3.79296875 0.0546875 C22.98107861 0.84932299 42.49070139 6.34566181 60 14 C61.07967041 14.46019531 61.07967041 14.46019531 62.18115234 14.9296875 C79.71014685 22.40949826 96.1315251 31.29219367 111.37353516 42.77490234 C113.00488522 44.00367968 114.64822204 45.21501752 116.29296875 46.42578125 C134.3215547 59.84053077 148.73196264 75.95106908 162 94 C162.4434375 94.59200195 162.886875 95.18400391 163.34375 95.79394531 C186.29996014 126.69515631 198.49727297 167.26139367 198.20581055 205.52246094 C198.18752328 207.99685021 198.18530207 210.47086244 198.18554688 212.9453125 C198.13311424 237.89655616 198.13311424 237.89655616 195.1875 249.9375 C195.01009277 250.69272949 194.83268555 251.44795898 194.64990234 252.22607422 C194.11271868 254.48737521 193.55811828 256.74378793 193 259 C192.84128418 259.66177246 192.68256836 260.32354492 192.51904297 261.00537109 C190.11455257 270.99305814 186.85216806 280.49676328 183 290 C182.72784668 290.67208496 182.45569336 291.34416992 182.17529297 292.03662109 C172.73780718 315.05393739 158.88573896 335.53033356 142.02734375 353.78125 C140.21571781 355.76391577 138.51686306 357.80086241 136.8125 359.875 C109.0141578 391.63540476 63.8229074 412.1904958 23.08154297 419.60668945 C21.63648556 419.87973514 20.19785421 420.18821935 18.76611328 420.52416992 C9.23523714 422.59936653 -0.41754542 422.43792754 -10.125 422.4375 C-11.52245956 422.44009827 -11.52245956 422.44009827 -12.94815063 422.44274902 C-28.22577233 422.43028165 -42.20218838 420.99048854 -57 417 C-58.39965525 416.66856865 -59.80061211 416.34256 -61.203125 416.0234375 C-76.93331459 412.23897766 -91.81215641 405.68307217 -106 398 C-107.02625488 397.44554199 -107.02625488 397.44554199 -108.07324219 396.87988281 C-119.53572914 390.60394536 -129.84707628 383.2061006 -140 375 C-140.59296875 374.5241748 -141.1859375 374.04834961 -141.796875 373.55810547 C-154.16017288 363.58027189 -165.23771844 352.54900107 -175 340 C-175.81082031 338.99453125 -176.62164062 337.9890625 -177.45703125 336.953125 C-210.84865301 295.19428884 -226.514282 241.20829915 -220.6875 188.1875 C-219.61357468 178.98432771 -218.39803636 169.96279653 -216 161 C-215.83806152 160.36545898 -215.67612305 159.73091797 -215.50927734 159.07714844 C-212.52418616 147.48407964 -208.22851124 136.75523481 -203 126 C-202.58975586 125.15356934 -202.17951172 124.30713867 -201.75683594 123.43505859 C-192.97368453 105.52788742 -182.19728281 89.90914755 -169 75 C-168.21753906 74.10667969 -167.43507812 73.21335937 -166.62890625 72.29296875 C-158.3878989 62.99505578 -149.74545073 54.70967598 -140 47 C-138.65808594 45.88044922 -138.65808594 45.88044922 -137.2890625 44.73828125 C-97.63922166 12.58257923 -50.34977533 -1.11280642 0 0 Z M-128 49 C-128.78890625 49.60972656 -129.5778125 50.21945313 -130.390625 50.84765625 C-164.32864395 77.50542275 -195.40258308 114.08829207 -206 157 C-206.16161621 157.62229492 -206.32323242 158.24458984 -206.48974609 158.88574219 C-207.78967957 163.89820783 -208.92425629 168.93517966 -210 174 C-210.15388184 174.68674805 -210.30776367 175.37349609 -210.46630859 176.08105469 C-219.76434286 218.64092181 -209.77644146 263.06354768 -190 301 C-189.66516602 301.64984863 -189.33033203 302.29969727 -188.98535156 302.96923828 C-179.6071839 321.01290549 -167.21544425 336.546382 -153 351 C-152.10410156 351.93457031 -151.20820313 352.86914062 -150.28515625 353.83203125 C-144.56061915 359.7193514 -138.48598946 364.96936226 -132 370 C-131.46842285 370.41862305 -130.9368457 370.83724609 -130.38916016 371.26855469 C-107.80295693 388.95725609 -81.649294 401.54255628 -54 409 C-53.17467773 409.2259082 -52.34935547 409.45181641 -51.49902344 409.68457031 C-4.74964196 421.84351851 48.0568274 409.46112997 88.89453125 385.4921875 C90.26583696 384.66611526 91.63439725 383.83546623 93 383 C93.65790527 382.59813477 94.31581055 382.19626953 94.99365234 381.78222656 C104.1740021 376.09293116 112.40926069 369.58557258 120.44677734 362.38574219 C121.8428568 361.14019881 123.25818349 359.91630911 124.67578125 358.6953125 C162.08697296 326.11714556 185.55427945 276.92444355 189.71875 227.734375 C193.33165866 173.86498049 176.57294485 122.83783516 141.23144531 81.95410156 C107.18535362 43.66388253 56.13815692 12.16628483 4 9 C-43.88129624 7.17984211 -89.75813391 18.94389283 -128 49 Z " fill="#EDEBEB" transform="translate(266,43)"/>
<path d="M0 0 C14.72625 -0.12375 14.72625 -0.12375 29.75 -0.25 C32.82538086 -0.28641602 35.90076172 -0.32283203 39.06933594 -0.36035156 C41.54100855 -0.37204767 44.01268894 -0.3822373 46.484375 -0.390625 C47.74008301 -0.41108887 48.99579102 -0.43155273 50.28955078 -0.45263672 C61.82572595 -0.4571448 72.4898778 1.75701168 81 10 C88.44079288 18.02913465 91.77798333 26.81537641 91.37890625 37.7578125 C90.33144133 46.72065663 86.88714681 54.07873353 80 60 C72.36306312 65.036169 65.14382583 66 56 66 C56 74.58 56 83.16 56 92 C47.42 92 38.84 92 30 92 C30 68.24 30 44.48 30 20 C29.01 20 28.02 20 27 20 C27 43.76 27 67.52 27 92 C18.09 92 9.18 92 0 92 C0 61.64 0 31.28 0 0 Z " fill="#FC504D" transform="translate(162,208)"/>
<path d="M0 0 C14.9428125 -0.1546875 14.9428125 -0.1546875 30.1875 -0.3125 C33.30598389 -0.35802002 36.42446777 -0.40354004 39.63745117 -0.45043945 C42.1476128 -0.46506145 44.65778642 -0.47779805 47.16796875 -0.48828125 C48.44015259 -0.51386108 49.71233643 -0.53944092 51.02307129 -0.5657959 C61.60715964 -0.57088294 71.385422 1.43132706 79.5 8.625 C86.50639968 16.43128463 89.36420364 26.00159477 89.2109375 36.31640625 C88.49076788 45.47856416 84.83262167 52.50382667 78.1484375 58.72265625 C69.46684863 65.76131496 62.48953992 66 51 66 C51 74.58 51 83.16 51 92 C43.41 92 35.82 92 28 92 C28 68.57 28 45.14 28 21 C31.3 21 34.6 21 38 21 C38 29.25 38 37.5 38 46 C41.8053125 45.8453125 41.8053125 45.8453125 45.6875 45.6875 C46.87218872 45.65015747 46.87218872 45.65015747 48.08081055 45.61206055 C52.48173249 45.38336173 55.38769907 44.7496619 59 42 C61.9522583 38.43692963 62.47540662 35.41888674 62.2890625 30.9296875 C61.85655103 28.04238119 60.84410875 26.23927491 59 24 C48.79324842 18.89662421 36.38622052 20.75908137 25 20 C25 43.76 25 67.52 25 92 C16.75 92 8.5 92 0 92 C0 61.64 0 31.28 0 0 Z " fill="#FC4F4C" transform="translate(266,208)"/>
<path d="M0 0 C29.92377423 -2.26026542 29.92377423 -2.26026542 36.6328125 2.61328125 C39.39209536 5.24947343 41.62359937 8.2468287 43.7890625 11.38037109 C53.35042982 24.16869988 76.80741726 32.52126454 92 35 C118.06847113 37.0588678 141.41861818 31.44038307 162 15 C162.73476563 14.25234375 163.46953125 13.5046875 164.2265625 12.734375 C166 11 166 11 168 11 C168.33 10.01 168.66 9.02 169 8 C170.62339805 6.29115995 172.29319053 4.62553283 174 3 C174.39872314 2.45947998 174.79744629 1.91895996 175.20825195 1.36206055 C177.99351006 -0.75525176 180.94006495 -0.36881626 184.29296875 -0.29296875 C185.35201164 -0.28660149 185.35201164 -0.28660149 186.43244934 -0.28010559 C188.68452303 -0.26333034 190.93569742 -0.22568243 193.1875 -0.1875 C194.71548185 -0.17245157 196.24347776 -0.15876344 197.77148438 -0.14648438 C201.51466872 -0.11343089 205.25718196 -0.06165832 209 0 C207.79576416 3.35739377 206.59397224 5.78966192 204.13671875 8.375 C203.57919922 8.96796875 203.02167969 9.5609375 202.44726562 10.171875 C201.57618164 11.07679688 201.57618164 11.07679688 200.6875 12 C200.11837891 12.60328125 199.54925781 13.2065625 198.96289062 13.828125 C195.6984415 17.27622281 192.37699075 20.6617616 189 24 C188.23042969 24.76699219 187.46085938 25.53398437 186.66796875 26.32421875 C162.1504158 49.68346212 130.18116131 59.79025017 96.87890625 59.3125 C88.48960956 59.03860105 80.93434659 57.66642747 73 55 C72.33645508 54.78569336 71.67291016 54.57138672 70.98925781 54.35058594 C48.7304957 47.04443707 30.76199896 34.14499286 14 18 C13.32453125 17.37609375 12.6490625 16.7521875 11.953125 16.109375 C7.21907037 11.62668611 3.47317903 6.51063664 0 1 C0 0.67 0 0.34 0 0 Z " fill="#FCFCFC" transform="translate(150,332)"/>
<path d="M0 0 C1.78274928 1.50684761 3.55325589 3.02827548 5.3125 4.5625 C5.80878906 4.99175781 6.30507813 5.42101562 6.81640625 5.86328125 C13.65505678 11.81067908 20.25858106 17.96675712 25.3125 25.5625 C25.3125 26.2225 25.3125 26.8825 25.3125 27.5625 C20.77791204 27.78687063 16.24662305 27.94912457 11.70776367 28.05688477 C10.16812818 28.10184116 8.62887035 28.16303611 7.09057617 28.24145508 C-5.68518724 28.87588929 -5.68518724 28.87588929 -10.53149414 25.69702148 C-12.7638308 23.42508683 -14.71935455 21.0634803 -16.6875 18.5625 C-36.50781157 0.82235655 -61.70466332 -6.6098982 -87.77197266 -5.63720703 C-107.79964219 -4.26535695 -126.20526151 6.14759411 -140.6875 19.5625 C-141.11297119 20.23877441 -141.53844238 20.91504883 -141.97680664 21.61181641 C-143.7108584 24.19444668 -145.10121144 25.80435255 -147.6875 27.5625 C-153.36448258 28.56130575 -158.88780023 28.31956147 -164.625 28.0625 C-166.18285134 28.02232665 -167.74080216 27.98583259 -169.29882812 27.953125 C-173.09752652 27.86540776 -176.89141158 27.72764398 -180.6875 27.5625 C-168.31741972 1.9972202 -137.00780568 -16.42830145 -111.21484375 -25.68359375 C-72.21019309 -38.37521429 -31.08549491 -24.86839593 0 0 Z " fill="#FBFCFC" transform="translate(331.6875,139.4375)"/>
<path d="M0 0 C13.74285714 0 13.74285714 0 19.375 5.1875 C21.53520587 8.92631786 21.69480336 11.77971293 21 16 C19.12154533 20.59177808 16.45860742 22.88802807 12 25 C8.04 25 4.08 25 0 25 C0 16.75 0 8.5 0 0 Z " fill="#252425" transform="translate(206,229)"/>
<path d="M0 0 C4.95 0 9.9 0 15 0 C14.67 7.92 14.34 15.84 14 24 C13.67 24 13.34 24 13 24 C13 16.41 13 8.82 13 1 C9.7 1 6.4 1 3 1 C3 24.43 3 47.86 3 72 C2.67 72 2.34 72 2 72 C1.9845388 71.08037979 1.9845388 71.08037979 1.96876526 70.1421814 C1.86042764 63.7504468 1.74585254 57.35884543 1.62768555 50.96728516 C1.58442396 48.58319898 1.5427428 46.19908357 1.50268555 43.81494141 C1.4447702 40.38435057 1.3811371 36.95390568 1.31640625 33.5234375 C1.29969376 32.46071625 1.28298126 31.397995 1.26576233 30.30307007 C1.1685115 25.42432408 0.9218262 20.80534301 0 16 C-0.07183963 14.6395273 -0.10882283 13.27638485 -0.09765625 11.9140625 C-0.09443359 11.21152344 -0.09121094 10.50898438 -0.08789062 9.78515625 C-0.07951172 9.07230469 -0.07113281 8.35945312 -0.0625 7.625 C-0.05798828 6.88894531 -0.05347656 6.15289062 -0.04882812 5.39453125 C-0.03715142 3.59631842 -0.01922011 1.79814803 0 0 Z " fill="#5A262A" transform="translate(291,228)"/>
<path d="M0 0 C9.57 0.33 19.14 0.66 29 1 C29 1.33 29 1.66 29 2 C25.10460543 2.19747891 21.20867984 2.38123029 17.3125 2.5625 C16.20970703 2.61857422 15.10691406 2.67464844 13.97070312 2.73242188 C12.90400391 2.78076172 11.83730469 2.82910156 10.73828125 2.87890625 C9.75899658 2.9260376 8.77971191 2.97316895 7.77075195 3.02172852 C5.04207295 3.00032994 2.64920937 2.62794508 0 2 C0 1.34 0 0.68 0 0 Z " fill="#545057" transform="translate(234,390)"/>
<path d="M0 0 C0.33 0.99 0.66 1.98 1 3 C-0.09283577 4.03295436 -1.19970579 5.05107835 -2.3125 6.0625 C-2.92738281 6.63097656 -3.54226563 7.19945312 -4.17578125 7.78515625 C-4.77777344 8.18605469 -5.37976563 8.58695312 -6 9 C-6.99 8.67 -7.98 8.34 -9 8 C-6.03 5.36 -3.06 2.72 0 0 Z " fill="#474049" transform="translate(338,356)"/>
<path d="M0 0 C0.99 0.33 1.98 0.66 3 1 C0.69 3.31 -1.62 5.62 -4 8 C-4.66 7.67 -5.32 7.34 -6 7 C-4.02 4.69 -2.04 2.38 0 0 Z " fill="#E1E2E2" transform="translate(113,128)"/>
<path d="M0 0 C-0.33 0.99 -0.66 1.98 -1 3 C-3.5625 4.1875 -3.5625 4.1875 -6 5 C-6.66 4.34 -7.32 3.68 -8 3 C-2.25 0 -2.25 0 0 0 Z " fill="#4E4850" transform="translate(312,376)"/>
</svg>
