<?xml version="1.0" encoding="utf-8"?>
<!-- Generator: Adobe Illustrator 21.0.0, SVG Export Plug-In . SVG Version: 6.00 Build 0)  -->
<svg version="1.1" id="图层_1" xmlns="http://www.w3.org/2000/svg" xmlns:xlink="http://www.w3.org/1999/xlink" x="0px" y="0px"
	 viewBox="0 0 512 512" style="enable-background:new 0 0 512 512;" xml:space="preserve">
<style type="text/css">
	.st0{fill:#F1F2F2;}
	.st1{fill:#262728;}
	.st2{fill:#2B2A2B;}
	.st3{fill:#343336;}
	.st4{fill:#EDEBEB;}
	.st5{fill:#FC504D;}
	.st6{fill:#FC4F4C;}
	.st7{fill:#FCFCFC;}
	.st8{fill:#FBFCFC;}
	.st9{fill:#252425;}
	.st10{fill:#E1E2E2;}
</style>
<path class="st0" d="M0,0c169,0,337.9,0,512,0c0,169,0,337.9,0,512c-169,0-337.9,0-512,0C0,343,0,174.1,0,0z"/>
<path class="st1" d="M0,0c169,0,337.9,0,512,0c0,169,0,337.9,0,512c-169,0-337.9,0-512,0C0,343,0,174.1,0,0z M125,91
	c-0.6,0.5-1.2,1-1.8,1.4C110.9,102.6,99.8,113.4,90,126c-0.8,1-1.6,2.1-2.5,3.1C70.2,150.9,56.9,177,50,204c-0.3,1-0.5,2-0.8,3
	c-12.9,53.8-1.6,107.3,26.2,154.3c2.7,4.4,5.6,8.5,8.6,12.7c0.4,0.6,0.8,1.1,1.3,1.7c6.8,9.1,14.3,17.5,22.2,25.7
	c1.2,1.3,2.5,2.6,3.7,3.9c6,6.3,12.9,11.5,19.8,16.7c1,0.7,1,0.7,1.9,1.5c8.6,6.5,17.5,12.2,26.9,17.5c0.9,0.5,1.9,1.1,2.8,1.6
	c23.7,13.2,53.1,22.4,80.4,22.7c0.9,0,1.7,0,2.6,0c19.1,0.2,36.9-0.1,55.4-5.3c0.9-0.2,1.7-0.5,2.6-0.7
	c40.8-10.8,81.4-33.2,108.4-66.3c0.4-0.5,0.9-1,1.3-1.6c7.5-9.1,14.5-18.4,20.7-28.4c0.4-0.7,0.8-1.3,1.2-2
	c10.3-16.9,18.2-35.7,22.8-55c0.3-1.1,0.3-1.1,0.5-2.1c7.5-30.7,8.9-65,1.5-95.9c-0.2-0.9-0.4-1.8-0.6-2.7
	c-6.3-25.9-18.1-51.2-34.4-72.3c-0.7-0.9-1.4-1.8-2.1-2.7c-4-5.2-8.3-10.1-12.8-14.9c-1.9-2.1-3.7-4.2-5.5-6.4
	c-14.3-16.2-33.1-28.3-51.6-39c-0.9-0.6-0.9-0.6-1.9-1.1c-9.9-5.7-20.3-9.9-30.9-14c-1.9-0.8-3.8-1.6-5.6-2.4
	c-4.5-1.8-9.1-2.9-13.9-4c-1.3-0.3-1.3-0.3-2.7-0.6C236.7,33.5,173,50.6,125,91z"/>
<path class="st2" d="M329.1,122.1c1.7,1.3,3.3,2.6,4.9,3.9c1.2,0.9,1.2,0.9,2.5,1.9c32,24.9,54,60.8,59.8,101.1
	c4.8,39.4-4.4,82.3-29.2,114c-3.3,4-6.9,7.8-10.5,11.5c-1.4,1.5-2.8,2.9-4.2,4.4c-10.5,10.9-22,19-35.3,26.1c-0.9,0.5-1.9,1-2.8,1.6
	c-28.8,15.4-62.5,18.8-94,10.4c-22.3-6.9-42.1-19.2-59.2-35c-0.6-0.5-1.1-1-1.7-1.6C149.7,351.6,142,342,135,331
	c-0.4-0.7-0.8-1.3-1.3-2c-19.2-30.6-27.8-71.7-19.7-107.2c0.3-1.3,0.6-2.5,1-3.8c0.3-1.5,0.7-3,1-4.5c6.8-29,21.4-53.2,42-74.5
	c0.5-0.6,1.1-1.1,1.6-1.7c20.6-21.1,47.6-34.8,76.4-40.3c0.9-0.2,1.9-0.4,2.8-0.6C270.5,92.2,303.5,103.8,329.1,122.1z"/>
<path class="st3" d="M266,43c1.9,0,1.9,0,3.8,0.1C289,43.8,308.5,49.3,326,57c1.1,0.5,1.1,0.5,2.2,0.9c17.5,7.5,34,16.4,49.2,27.8
	c1.6,1.2,3.3,2.4,4.9,3.7c18,13.4,32.4,29.5,45.7,47.6c0.4,0.6,0.9,1.2,1.3,1.8c23,30.9,35.2,71.5,34.9,109.7c0,2.5,0,4.9,0,7.4
	c-0.1,25-0.1,25-3,37c-0.2,0.8-0.4,1.5-0.5,2.3c-0.5,2.3-1.1,4.5-1.6,6.8c-0.2,0.7-0.3,1.3-0.5,2c-2.4,10-5.7,19.5-9.5,29
	c-0.3,0.7-0.5,1.3-0.8,2c-9.4,23-23.3,43.5-40.1,61.7c-1.8,2-3.5,4-5.2,6.1c-27.8,31.8-73,52.3-113.7,59.7c-1.4,0.3-2.9,0.6-4.3,0.9
	c-9.5,2.1-19.2,1.9-28.9,1.9c-1.4,0-1.4,0-2.8,0c-15.3,0-29.3-1.5-44.1-5.4c-1.4-0.3-2.8-0.7-4.2-1c-15.7-3.8-30.6-10.3-44.8-18
	c-1-0.6-1-0.6-2.1-1.1c-11.5-6.3-21.8-13.7-31.9-21.9c-0.6-0.5-1.2-1-1.8-1.4c-12.4-10-23.4-21-33.2-33.6c-0.8-1-1.6-2-2.5-3
	c-33.4-41.8-49.1-95.7-43.2-148.8C46.4,222,47.6,213,50,204c0.2-0.6,0.3-1.3,0.5-1.9c3-11.6,7.3-22.3,12.5-33.1
	c0.4-0.8,0.8-1.7,1.2-2.6C73,148.5,83.8,132.9,97,118c0.8-0.9,1.6-1.8,2.4-2.7c8.2-9.3,16.9-17.6,26.6-25.3c1.3-1.1,1.3-1.1,2.7-2.3
	C168.4,55.6,215.7,41.9,266,43z M120,121c-1.4,1.3-1.4,1.3-2.8,2.6C105.2,135,95,148.5,87,163c-0.5,0.8-0.9,1.7-1.4,2.5
	C75.9,183.2,68.9,200.2,65,220c-0.2,0.8-0.4,1.7-0.5,2.5c-1.8,9.4-1.9,18.7-1.8,28.2c0,0.9,0,1.7,0,2.6c0,14.2,1,27.8,4.4,41.6
	c0.2,0.8,0.4,1.5,0.6,2.3c1.2,5,2.8,9.8,4.4,14.7c0.2,0.7,0.5,1.4,0.7,2.1c12.4,35.7,34.7,66.5,64.3,89.9c0.7,0.6,1.5,1.3,2.2,1.9
	C173.8,435,221,451,266,448c13.6-1.4,27.1-3.5,40-8c0.8-0.3,1.6-0.5,2.5-0.8c12.3-4.2,24.1-8.9,35.5-15.2c0.6-0.3,1.2-0.6,1.8-1
	c46.2-24.6,79.1-67.6,94.6-117.2c14.2-48.2,5.7-97.3-17.6-141.1c-13.2-24.2-33.1-46.9-55.8-62.7c-0.6-0.4-1.2-0.9-1.9-1.3
	C348.4,89.1,330.3,79.4,311,73c-0.8-0.3-1.6-0.6-2.4-0.9C239.9,47.9,170.9,72.9,120,121z"/>
<path class="st4" d="M266,43c1.9,0,1.9,0,3.8,0.1C289,43.8,308.5,49.3,326,57c1.1,0.5,1.1,0.5,2.2,0.9c17.5,7.5,34,16.4,49.2,27.8
	c1.6,1.2,3.3,2.4,4.9,3.7c18,13.4,32.4,29.5,45.7,47.6c0.4,0.6,0.9,1.2,1.3,1.8c23,30.9,35.2,71.5,34.9,109.7c0,2.5,0,4.9,0,7.4
	c-0.1,25-0.1,25-3,37c-0.2,0.8-0.4,1.5-0.5,2.3c-0.5,2.3-1.1,4.5-1.6,6.8c-0.2,0.7-0.3,1.3-0.5,2c-2.4,10-5.7,19.5-9.5,29
	c-0.3,0.7-0.5,1.3-0.8,2c-9.4,23-23.3,43.5-40.1,61.7c-1.8,2-3.5,4-5.2,6.1c-27.8,31.8-73,52.3-113.7,59.7c-1.4,0.3-2.9,0.6-4.3,0.9
	c-9.5,2.1-19.2,1.9-28.9,1.9c-1.4,0-1.4,0-2.8,0c-15.3,0-29.3-1.5-44.1-5.4c-1.4-0.3-2.8-0.7-4.2-1c-15.7-3.8-30.6-10.3-44.8-18
	c-1-0.6-1-0.6-2.1-1.1c-11.5-6.3-21.8-13.7-31.9-21.9c-0.6-0.5-1.2-1-1.8-1.4c-12.4-10-23.4-21-33.2-33.6c-0.8-1-1.6-2-2.5-3
	c-33.4-41.8-49.1-95.7-43.2-148.8C46.4,222,47.6,213,50,204c0.2-0.6,0.3-1.3,0.5-1.9c3-11.6,7.3-22.3,12.5-33.1
	c0.4-0.8,0.8-1.7,1.2-2.6C73,148.5,83.8,132.9,97,118c0.8-0.9,1.6-1.8,2.4-2.7c8.2-9.3,16.9-17.6,26.6-25.3c1.3-1.1,1.3-1.1,2.7-2.3
	C168.4,55.6,215.7,41.9,266,43z M138,92c-0.8,0.6-1.6,1.2-2.4,1.8c-33.9,26.7-65,63.2-75.6,106.2c-0.2,0.6-0.3,1.2-0.5,1.9
	c-1.3,5-2.4,10-3.5,15.1c-0.2,0.7-0.3,1.4-0.5,2.1c-9.3,42.6,0.7,87,20.5,124.9c0.3,0.6,0.7,1.3,1,2c9.4,18,21.8,33.6,36,48
	c0.9,0.9,1.8,1.9,2.7,2.8c5.7,5.9,11.8,11.1,18.3,16.2c0.5,0.4,1.1,0.8,1.6,1.3c22.6,17.7,48.7,30.3,76.4,37.7
	c0.8,0.2,1.7,0.5,2.5,0.7c46.7,12.2,99.6-0.2,140.4-24.2c1.4-0.8,2.7-1.7,4.1-2.5c0.7-0.4,1.3-0.8,2-1.2
	c9.2-5.7,17.4-12.2,25.5-19.4c1.4-1.2,2.8-2.5,4.2-3.7c37.4-32.6,60.9-81.8,65-131c3.6-53.9-13.1-104.9-48.5-145.8
	c-34-38.3-85.1-69.8-137.2-73C222.1,50.2,176.2,61.9,138,92z"/>
<path class="st5" d="M162,208c14.7-0.1,14.7-0.1,29.8-0.3c3.1,0,6.2-0.1,9.3-0.1c2.5,0,4.9,0,7.4,0c1.3,0,2.5,0,3.8-0.1
	c11.5,0,22.2,2.2,30.7,10.5c7.4,8,10.8,16.8,10.4,27.8c-1,9-4.5,16.3-11.4,22.2c-7.6,5-14.9,6-24,6c0,8.6,0,17.2,0,26
	c-8.6,0-17.2,0-26,0c0-23.8,0-47.5,0-72c-1,0-2,0-3,0c0,23.8,0,47.5,0,72c-8.9,0-17.8,0-27,0C162,269.6,162,239.3,162,208z"/>
<path class="st6" d="M266,208c14.9-0.2,14.9-0.2,30.2-0.3c3.1,0,6.2-0.1,9.4-0.1c2.5,0,5,0,7.5,0c1.3,0,2.5-0.1,3.9-0.1
	c10.6,0,20.4,2,28.5,9.2c7,7.8,9.9,17.4,9.7,27.7c-0.7,9.2-4.4,16.2-11.1,22.4c-8.7,7-15.7,7.3-27.1,7.3c0,8.6,0,17.2,0,26
	c-7.6,0-15.2,0-23,0c0-23.4,0-46.9,0-71c3.3,0,6.6,0,10,0c0,8.3,0,16.5,0,25c3.8-0.2,3.8-0.2,7.7-0.3c1.2,0,1.2,0,2.4-0.1
	c4.4-0.2,7.3-0.9,10.9-3.6c3-3.6,3.5-6.6,3.3-11.1c-0.4-2.9-1.4-4.7-3.3-6.9c-10.2-5.1-22.6-3.2-34-4c0,23.8,0,47.5,0,72
	c-8.3,0-16.5,0-25,0C266,269.6,266,239.3,266,208z"/>
<path class="st7" d="M150,332c29.9-2.3,29.9-2.3,36.6,2.6c2.8,2.6,5,5.6,7.2,8.8c9.6,12.8,33,21.1,48.2,23.6
	c26.1,2.1,49.4-3.6,70-20c1-0.9,1.8-1.7,2.4-2.2c0.7-0.6,1.1-1,1.7-1.6c0.6-0.6,1.1-1.2,1.5-1.5c0.5-0.5,0.9-1.1,1.4-1.6
	c1.6-1.7,3.3-3.4,5-5c0.4-0.5,0.8-1.1,1.2-1.6c2.8-2.1,5.7-1.7,9.1-1.7c1.1,0,1.1,0,2.1,0c2.3,0,4.5,0.1,6.8,0.1c1.5,0,3.1,0,4.6,0
	c3.7,0,7.5,0.1,11.2,0.1c-1.2,3.4-2.4,5.8-4.9,8.4c-0.6,0.6-1.1,1.2-1.7,1.8c-0.9,0.9-0.9,0.9-1.8,1.8c-0.6,0.6-1.1,1.2-1.7,1.8
	c-3.3,3.4-6.6,6.8-10,10.2c-0.8,0.8-1.5,1.5-2.3,2.3c-24.5,23.4-56.5,33.5-89.8,33c-8.4-0.3-15.9-1.6-23.9-4.3
	c-0.7-0.2-1.3-0.4-2-0.6c-22.3-7.3-40.2-20.2-57-36.4c-0.7-0.6-1.4-1.2-2-1.9c-4.7-4.5-8.5-9.6-12-15.1C150,332.7,150,332.3,150,332
	z"/>
<path class="st8" d="M331.7,139.4c1.8,1.5,3.6,3,5.3,4.6c0.5,0.4,1,0.9,1.5,1.3c6.8,5.9,13.4,12.1,18.5,19.7c0,0.7,0,1.3,0,2
	c-4.5,0.2-9.1,0.4-13.6,0.5c-1.5,0-3.1,0.1-4.6,0.2c-12.8,0.6-12.8,0.6-17.6-2.5c-2.2-2.3-4.2-4.6-6.2-7.1
	c-19.8-17.7-45-25.2-71.1-24.2c-20,1.4-38.4,11.8-52.9,25.2c-0.4,0.7-0.9,1.4-1.3,2c-1.7,2.6-3.1,4.2-5.7,6
	c-5.7,1-11.2,0.8-16.9,0.5c-1.6,0-3.1-0.1-4.7-0.1c-3.8-0.1-7.6-0.2-11.4-0.4c12.4-25.6,43.7-44,69.5-53.2
	C259.5,101.1,300.6,114.6,331.7,139.4z"/>
<path class="st9" d="M206,229c13.7,0,13.7,0,19.4,5.2c2.2,3.7,2.3,6.6,1.6,10.8c-1.9,4.6-4.5,6.9-9,9c-4,0-7.9,0-12,0
	C206,245.8,206,237.5,206,229z"/>
<path class="st10" d="M113,128c1,0.3,2,0.7,3,1c-2.3,2.3-4.6,4.6-7,7c-0.7-0.3-1.3-0.7-2-1C109,132.7,111,130.4,113,128z"/>
<path class="st7" d="M316,359"/>
</svg>
